<svg width="137" height="137" viewBox="0 0 137 137" fill="none" xmlns="http://www.w3.org/2000/svg">
<g clip-path="url(#clip0_204_16)">
<path d="M89.8372 15L46.7654 15C41.0491 15 35.7671 18.0496 32.909 23L11.3731 60.3013C8.51494 65.2517 8.51494 71.3508 11.3731 76.3013L32.909 113.603C35.7671 118.553 41.0491 121.603 46.7654 121.603L89.8372 121.603C95.5534 121.603 100.835 118.553 103.694 113.603L125.229 76.3013C128.088 71.3509 128.088 65.2517 125.229 60.3013L103.694 23C100.835 18.0496 95.5534 15 89.8372 15Z" stroke="#C9A5FC" stroke-width="20"/>
<path d="M51.8387 44.8013C52.7318 43.2543 54.3825 42.3013 56.1688 42.3013L80.3953 42.3013C82.1816 42.3013 83.8322 43.2543 84.7254 44.8013L96.8387 65.782C97.7318 67.329 97.7318 69.235 96.8387 70.782L84.7254 91.7628C83.8322 93.3098 82.1816 94.2628 80.3953 94.2628L56.1688 94.2628C54.3825 94.2628 52.7318 93.3098 51.8387 91.7628L39.7254 70.782C38.8322 69.235 38.8322 67.329 39.7254 65.782L51.8387 44.8013Z" fill="#C9A5FC"/>
<path d="M78.8013 73.9519L122.103 73.9519L100.452 111.452L78.8013 73.9519Z" fill="#C9A5FC"/>
</g>
<defs>
<clipPath id="clip0_204_16">
<rect width="136.6" height="136.6" fill="white"/>
</clipPath>
</defs>
</svg>
